<svg id="Capa_1" data-name="Capa 1" xmlns="http://www.w3.org/2000/svg" viewBox="0 0 300 300"><defs><style>.cls-1{fill:#fff;fill-rule:evenodd;}</style></defs><rect width="300" height="300" rx="47"/><path class="cls-1" d="M150,12.6a140.88,140.88,0,0,0-44.55,274.53c7,1.23,9.68-3,9.68-6.7,0-3.34-.17-14.43-.17-26.23-35.4,6.51-44.55-8.63-47.37-16.55-1.58-4.05-8.45-16.56-14.44-19.9-4.93-2.64-12-9.16-.17-9.34,11.09-.17,19,10.22,21.65,14.44,12.68,21.31,32.93,15.32,41,11.63,1.24-9.16,4.93-15.32,9-18.85C93.3,212.11,60.55,200,60.55,146.08A54.83,54.83,0,0,1,75,108.22c-1.41-3.52-6.34-18,1.41-37.33,0,0,11.79-3.7,38.73,14.44a132.68,132.68,0,0,1,70.44,0C212.51,67,224.31,70.89,224.31,70.89c7.75,19.37,2.82,33.81,1.41,37.33a54.5,54.5,0,0,1,14.44,37.86c0,54.06-32.93,66-64.28,69.55,5.11,4.41,9.51,12.86,9.51,26.07,0,18.84-.17,34-.17,38.73,0,3.7,2.64,8.1,9.68,6.7A140.95,140.95,0,0,0,150,12.6Z"/></svg>