<svg id="Capa_1" data-name="Capa 1" xmlns="http://www.w3.org/2000/svg" viewBox="0 0 300 300"><defs><style>.cls-1{fill:#ededed;}.cls-2{fill:#4285f4;}.cls-3{fill:#34a853;}.cls-4{fill:#fbbc04;}.cls-5{fill:#ea4335;}.cls-6{fill:#c5221f;}</style></defs><rect class="cls-1" width="300" height="300" rx="47"/><g id="g18"><path id="path8" class="cls-2" d="M28.08,255.65H72.9V146.79l-64-48V236.44A19.21,19.21,0,0,0,28.08,255.65Z"/><path id="path10" class="cls-3" d="M226.58,255.65H271.4a19.21,19.21,0,0,0,19.21-19.21V98.77l-64,48Z"/><path id="path12" class="cls-4" d="M226.58,63.56v83.23l64-48V73.16a28.82,28.82,0,0,0-46.1-23Z"/><path id="path14" class="cls-5" d="M72.9,146.79V63.56l76.84,57.63,76.84-57.63v83.23l-76.84,57.63Z"/><path id="path16" class="cls-6" d="M8.87,73.16V98.77l64,48V63.56L55,50.11a28.82,28.82,0,0,0-46.1,23Z"/></g></svg>