<svg xmlns="http://www.w3.org/2000/svg" viewBox="0 0 100 100" fill="#DDDDDD"><g id="icona-twitter"><path d="M-.14,81.47A58.2,58.2,0,0,0,31.4,90.75c38.19,0,59.78-32.27,58.48-61.2a42,42,0,0,0,10.26-10.67,40.71,40.71,0,0,1-11.81,3.24,20.61,20.61,0,0,0,9-11.4,41.29,41.29,0,0,1-13.06,5A20.59,20.59,0,0,0,49.25,34.51,58.38,58.38,0,0,1,6.84,13a20.6,20.6,0,0,0,6.37,27.47,20.42,20.42,0,0,1-9.32-2.57,20.58,20.58,0,0,0,16.5,20.43,20.54,20.54,0,0,1-9.29.36A20.6,20.6,0,0,0,30.32,73,41.36,41.36,0,0,1-.14,81.47Z"/></g></svg>