<svg xmlns="http://www.w3.org/2000/svg" viewBox="0 0 100 100" fill="#DDDDDD"><g id="icona-github"><path d="M99.54,51.32A50,50,0,0,0,62.41,3,49.72,49.72,0,0,0,34.46,98.41c2.47.43,3.42-1.06,3.42-2.37s-.06-5.09-.06-9.26c-12.5,2.3-15.73-3-16.73-5.84-.55-1.43-3-5.85-5.09-7-1.74-.94-4.24-3.24-.06-3.3,3.91-.06,6.7,3.61,7.64,5.1,4.48,7.52,11.62,5.4,14.47,4.1a10.43,10.43,0,0,1,3.18-6.65c-11.06-1.25-22.62-5.52-22.62-24.55a19.37,19.37,0,0,1,5.1-13.37c-.5-1.24-2.24-6.35.5-13.17,0,0,4.16-1.31,13.67,5.09a46.82,46.82,0,0,1,24.86,0c9.51-6.47,13.67-5.09,13.67-5.09,2.74,6.83,1,11.93.5,13.17A19.23,19.23,0,0,1,82,48.62C82,67.7,70.39,71.91,59.32,73.17c1.8,1.55,3.36,4.54,3.36,9.2,0,6.65-.06,12-.06,13.67,0,1.31.93,2.86,3.41,2.37a52.21,52.21,0,0,0,6.77-2.85l.41-.21.45-.25A49.93,49.93,0,0,0,99.54,51.32Z"/></g></svg>