<svg xmlns="http://www.w3.org/2000/svg" viewBox="0 0 100 100" fill="#F05454"><g id="icona-instagram"><path d="M50,9c13.36,0,14.92.06,20.19.3A27.78,27.78,0,0,1,79.45,11a16.55,16.55,0,0,1,9.48,9.48,27.46,27.46,0,0,1,1.72,9.28c.24,5.27.3,6.85.3,20.2s-.06,14.92-.3,20.19a27.52,27.52,0,0,1-1.72,9.28,16.59,16.59,0,0,1-9.48,9.49,27.79,27.79,0,0,1-9.28,1.71c-5.27.24-6.85.3-20.19.3s-14.93-.06-20.2-.3a27.85,27.85,0,0,1-9.28-1.71A16.62,16.62,0,0,1,11,79.45,27.72,27.72,0,0,1,9.3,70.17C9.06,64.9,9,63.32,9,50s.06-14.93.3-20.2A27.78,27.78,0,0,1,11,20.5,16.58,16.58,0,0,1,20.5,11,27.72,27.72,0,0,1,29.78,9.3C35.05,9.06,36.63,9,50,9m0-9C36.4,0,34.7.06,29.37.3A37.2,37.2,0,0,0,17.22,2.62,25.66,25.66,0,0,0,2.62,17.24,37.64,37.64,0,0,0,.3,29.4C.06,34.74,0,36.43,0,50s0,15.28.29,20.6A37.33,37.33,0,0,0,2.62,82.76,25.61,25.61,0,0,0,17.24,97.38,37.64,37.64,0,0,0,29.4,99.7c5.34.24,7,.3,20.6.3s15.28-.06,20.6-.3a37.33,37.33,0,0,0,12.16-2.32A25.61,25.61,0,0,0,97.38,82.76,37.64,37.64,0,0,0,99.7,70.6c.24-5.34.29-7,.29-20.6s0-15.28-.29-20.6a37.33,37.33,0,0,0-2.32-12.16A25.61,25.61,0,0,0,82.76,2.62,37.64,37.64,0,0,0,70.6.3C65.26.06,63.57,0,50,0"/><path d="M50,24.32A25.66,25.66,0,1,0,75.63,50,25.65,25.65,0,0,0,50,24.32h0m0,42.32A16.66,16.66,0,1,1,66.63,50h0A16.67,16.67,0,0,1,50,66.64"/><path d="M82.65,23.3a6,6,0,1,1-6-6h0a6,6,0,0,1,6,6"/></g></svg>