<svg xmlns="http://www.w3.org/2000/svg" viewBox="0 0 100 100" fill="#DDDDDD"><g id="icona-mail"><path id="_Rettangolo_" data-name="&lt;Rettangolo&gt;" d="M6.75,18.25a6,6,0,0,0-2.25.42L18.66,33.25,33,48.09l.26.31.43.43.41.41.84.89L47.2,62.72a10.06,10.06,0,0,0,1.26.91,3.91,3.91,0,0,0,4,.1,7.72,7.72,0,0,0,1.27-1L68,48,82.32,33.25,96.16,19a6.12,6.12,0,0,0-2.93-.73ZM2.41,20a8.23,8.23,0,0,0-2.46,6V73.92A8.49,8.49,0,0,0,1.63,79l2-1.88L18.39,62.78l13.12-12.7-.26-.32L16.88,35,2.51,20.13Zm95.64.47L84.05,35,69.73,49.76l-.26.27L83.11,63.25,97.9,77.62l.89.84a8.58,8.58,0,0,0,1.26-4.55V26A8.42,8.42,0,0,0,98.05,20.5ZM33.19,51.8l-13,12.71L5.29,78.88,3.41,80.71a6.21,6.21,0,0,0,3.34,1h86.5a6.22,6.22,0,0,0,3.92-1.47l-.94-.93L81.38,65,67.74,51.8,55.46,64.45a14.56,14.56,0,0,1-1.76,1.23,7.64,7.64,0,0,1-3.34.87,7.92,7.92,0,0,1-3.32-1,6.94,6.94,0,0,1-1.41-1Z"/></g></svg>