<svg xmlns="http://www.w3.org/2000/svg" viewBox="0 0 100 100" fill="#DDDDDD"><defs><style>.cls-1{fill-rule:evenodd;}</style></defs><g id="icona-website"><path class="cls-1" d="M59.06,27.36a4.53,4.53,0,0,0-4.53,4.53V68.11a4.53,4.53,0,0,0,4.53,4.53H77.17a4.52,4.52,0,0,0,4.52-4.53V31.89a4.52,4.52,0,0,0-4.52-4.53Zm13.58,9.06H63.58V63.58h9.06Z"/><path d="M22.83,27.36a4.53,4.53,0,0,0,0,9.06H40.94a4.53,4.53,0,0,0,0-9.06Z"/><path d="M22.83,45.47a4.53,4.53,0,0,0,0,9.06H40.94a4.53,4.53,0,0,0,0-9.06Z"/><path d="M18.31,68.11a4.52,4.52,0,0,1,4.52-4.53H40.94a4.53,4.53,0,0,1,0,9.06H22.83A4.52,4.52,0,0,1,18.31,68.11Z"/><path class="cls-1" d="M13.78,9.25A13.59,13.59,0,0,0,.19,22.83V77.17A13.59,13.59,0,0,0,13.78,90.75H86.22A13.59,13.59,0,0,0,99.81,77.17V22.83A13.59,13.59,0,0,0,86.22,9.25Zm72.44,9.06H13.78a4.52,4.52,0,0,0-4.53,4.52V77.17a4.52,4.52,0,0,0,4.53,4.52H86.22a4.52,4.52,0,0,0,4.53-4.52V22.83A4.52,4.52,0,0,0,86.22,18.31Z"/></g></svg>