<svg xmlns="http://www.w3.org/2000/svg" viewBox="0 0 100 100" fill="#DDDDDD"><g id="icona-googledrive"><path d="M50,94.85c-9.5,0-19,0-28.49,0a10.62,10.62,0,0,1-9.93-5.76C8.2,83.24,4.79,77.41,1.43,71.56a10.21,10.21,0,0,1-.09-10.74c3.62-6.35,7.29-12.68,10.94-19L26.05,17.94c1.46-2.54,2.89-5.1,4.4-7.62a10.21,10.21,0,0,1,8.1-5.11,17.85,17.85,0,0,1,1.79-.07h20a10.79,10.79,0,0,1,4,.72,11.46,11.46,0,0,1,5.69,5.3C74,18,77.93,24.75,81.84,31.55L94.67,53.88c1.26,2.19,2.49,4.39,3.79,6.56a11.73,11.73,0,0,1,1.68,5.84,9.86,9.86,0,0,1-1.49,5.23c-3.52,6.11-7,12.23-10.59,18.31a10.05,10.05,0,0,1-7.69,5,13.66,13.66,0,0,1-1.69.08ZM50,66.09h17.8c.64,0,.66,0,.34-.61-1.08-1.86-2.15-3.73-3.23-5.6l-9.78-17-4.82-8.36c-.28-.49-.34-.48-.64,0,0,0-.05.09-.07.14q-5.1,8.84-10.18,17.67c-2.53,4.4-5.07,8.78-7.6,13.18-.28.48-.25.53.29.54H50Z"/></g></svg>