<svg xmlns="http://www.w3.org/2000/svg" viewBox="0 0 100 100" fill="#DDDDDD"><g id="icona-gmail"><g id="_Gruppo_" data-name="&lt;Gruppo&gt;"><path id="path8" d="M6.82,87.5H22.73V48.86L0,31.82V80.68A6.83,6.83,0,0,0,6.82,87.5Z"/><path id="path10" d="M77.27,87.5H93.18A6.82,6.82,0,0,0,100,80.68V31.82l-22.71,17Z"/><path id="path12" d="M77.27,19.32V48.86l22.72-17v-9.1a10.23,10.23,0,0,0-16.36-8.16Z"/><path id="path14" d="M22.73,48.86V19.32L50,39.77,77.27,19.32V48.86L50,69.32Z"/><path id="path16" d="M0,22.72v9.1l22.71,17V19.32l-6.34-4.78A10.23,10.23,0,0,0,0,22.71Z"/></g></g></svg>