<svg xmlns="http://www.w3.org/2000/svg" viewBox="0 0 100 100" fill="#DDDDDD"><defs><style>.cls-1{fill-rule:evenodd;}</style></defs><g id="icona-whatsapp"><path class="cls-1" d="M100,47.47a49.1,49.1,0,0,0-98.1-.89c0,.71-.05,1.42-.05,2.13a48.31,48.31,0,0,0,7,25.16L0,100,27.2,91.36A49.11,49.11,0,0,0,100,48.72,10.43,10.43,0,0,0,100,47.47ZM50.91,89.66a41.07,41.07,0,0,1-22.7-6.78L12.33,87.94l5.15-15.19a40.51,40.51,0,0,1-7.86-24,37.76,37.76,0,0,1,.21-4A41.28,41.28,0,0,1,92,45.54c.1,1.06.14,2.11.14,3.2A41.12,41.12,0,0,1,50.91,89.66Z"/><path class="cls-1" d="M73.41,58.55c-1.22-.61-7.13-3.49-8.23-3.88s-1.91-.61-2.71.6-3.13,3.89-3.82,4.67-1.4.89-2.61.3a32.6,32.6,0,0,1-9.68-5.94A36,36,0,0,1,39.67,46c-.68-1.21-.06-1.82.53-2.43s1.22-1.4,1.82-2.09l.44-.6a15,15,0,0,0,.76-1.43,2.13,2.13,0,0,0-.1-2.09c-.29-.61-2.71-6.48-3.71-8.87s-2-2-2.72-2-1.49-.11-2.3-.11a4.44,4.44,0,0,0-3.21,1.49A13.37,13.37,0,0,0,27,37.9,15.13,15.13,0,0,0,27.58,42a26.85,26.85,0,0,0,4.3,8.27c.6.79,8.32,13.24,20.54,18s12.25,3.17,14.46,3S74,68.37,75,65.57s1-5.17.71-5.67S74.6,59.14,73.41,58.55Z"/></g></svg>