<svg id="Capa_1" data-name="Capa 1" xmlns="http://www.w3.org/2000/svg" xmlns:xlink="http://www.w3.org/1999/xlink" viewBox="0 0 300 300"><defs><style>.cls-1{fill:url(#Degradado_sin_nombre_2);}.cls-2{fill:#fff;}</style><radialGradient id="Degradado_sin_nombre_2" cx="-7.51" cy="301" r="554.67" gradientUnits="userSpaceOnUse"><stop offset="0" stop-color="#f5ec53"/><stop offset="0.24" stop-color="#e48244"/><stop offset="0.4" stop-color="#d15767"/><stop offset="0.49" stop-color="#c84278"/><stop offset="1" stop-color="#192cfa"/></radialGradient></defs><rect class="cls-1" width="300" height="300" rx="47"/><path class="cls-2" d="M150,82.57c22,0,24.56.09,33.23.48,8,.37,12.38,1.71,15.28,2.84a27.24,27.24,0,0,1,15.6,15.6c1.13,2.9,2.47,7.26,2.84,15.28.39,8.67.48,11.27.48,33.23s-.09,24.56-.48,33.23c-.37,8-1.71,12.38-2.84,15.28a27.29,27.29,0,0,1-15.6,15.61c-2.9,1.12-7.26,2.46-15.28,2.83-8.67.39-11.27.48-33.23.48s-24.56-.09-33.23-.48c-8-.37-12.38-1.71-15.28-2.83a27.29,27.29,0,0,1-15.6-15.61c-1.13-2.9-2.47-7.26-2.84-15.28-.39-8.67-.48-11.27-.48-33.23s.09-24.56.48-33.23c.37-8,1.71-12.38,2.84-15.28a27.24,27.24,0,0,1,15.6-15.6c2.9-1.13,7.26-2.47,15.28-2.84,8.67-.39,11.27-.48,33.23-.48m0-14.82c-22.34,0-25.14.1-33.91.5s-14.73,1.79-20,3.82A42.08,42.08,0,0,0,72.07,96.13c-2,5.23-3.42,11.21-3.82,20s-.49,11.57-.49,33.91.09,25.14.49,33.91,1.79,14.73,3.82,20a42.08,42.08,0,0,0,24.06,24.06c5.23,2,11.21,3.42,20,3.82s11.57.5,33.91.5,25.14-.1,33.91-.5,14.73-1.79,20-3.82a42.08,42.08,0,0,0,24.06-24.06c2-5.23,3.42-11.21,3.82-20s.49-11.57.49-33.91-.09-25.14-.49-33.91-1.79-14.73-3.82-20a42.08,42.08,0,0,0-24.06-24.06c-5.23-2-11.21-3.42-20-3.82s-11.57-.5-33.91-.5"/><path class="cls-2" d="M150,107.77A42.23,42.23,0,1,0,192.23,150,42.23,42.23,0,0,0,150,107.77m0,69.65A27.42,27.42,0,1,1,177.41,150,27.42,27.42,0,0,1,150,177.42"/><path class="cls-2" d="M203.77,106.1a9.87,9.87,0,1,1-9.87-9.87,9.87,9.87,0,0,1,9.87,9.87"/></svg>