<svg id="Capa_1" data-name="Capa 1" xmlns="http://www.w3.org/2000/svg" xmlns:xlink="http://www.w3.org/1999/xlink" viewBox="0 0 300 300"><defs><style>.cls-1{fill:url(#Sfumatura_senza_nome_2);}.cls-2{fill:#fff;}</style><linearGradient id="Sfumatura_senza_nome_2" x1="150" y1="300" x2="150" gradientUnits="userSpaceOnUse"><stop offset="0" stop-color="#70efff"/><stop offset="1" stop-color="#5770ff"/></linearGradient></defs><rect class="cls-1" width="300" height="300" rx="47"/><path id="rect3027" class="cls-2" d="M63.8,86.72a12,12,0,0,0-4.48.83l28.23,29.06,28.54,29.59.52.62.84.84.83.83,1.67,1.77,24.48,25.1a22.13,22.13,0,0,0,2.51,1.81,9.33,9.33,0,0,0,3.8,1.19,9.12,9.12,0,0,0,4.19-1,15.85,15.85,0,0,0,2.52-2l28.33-29.27,28.65-29.48L242,88.18a12.09,12.09,0,0,0-5.83-1.46Zm-8.64,3.54a16.42,16.42,0,0,0-4.9,12v95.42a16.86,16.86,0,0,0,3.33,10.2l4-3.75L87,175.47l26.15-25.31-.52-.63L84,120.05,55.36,90.47Zm190.62.94-27.92,28.85-28.54,29.48-.52.52L216,176.41l29.48,28.64,1.77,1.67a17.13,17.13,0,0,0,2.5-9.06V102.24A16.76,16.76,0,0,0,245.78,91.2ZM116.51,153.59l-26,25.32L60.89,207.55l-3.75,3.65a12.25,12.25,0,0,0,6.66,2.08H236.2a12.4,12.4,0,0,0,7.81-2.92l-1.87-1.87-29.59-28.65-27.19-26.25L160.89,178.8a28.76,28.76,0,0,1-3.51,2.45,15.49,15.49,0,0,1-6.66,1.74,15.75,15.75,0,0,1-6.61-2,12.94,12.94,0,0,1-2.81-2Z"/></svg>