<svg id="Capa_1" data-name="Capa 1" xmlns="http://www.w3.org/2000/svg" viewBox="0 0 300 300"><defs><style>.cls-1{fill:#29a9e1;}.cls-2{fill:#fff;}</style></defs><rect class="cls-1" width="300" height="300" rx="47"/><path class="cls-2" d="M70.08,200.21A92.77,92.77,0,0,0,120.35,215c60.88,0,95.28-51.43,93.21-97.55a66.71,66.71,0,0,0,16.36-17,65.09,65.09,0,0,1-18.83,5.16A32.81,32.81,0,0,0,225.5,87.44a65.52,65.52,0,0,1-20.82,8,32.82,32.82,0,0,0-55.88,29.92A93.09,93.09,0,0,1,81.21,91.05a32.82,32.82,0,0,0,10.15,43.78,32.62,32.62,0,0,1-14.86-4.1,32.83,32.83,0,0,0,26.3,32.57,32.79,32.79,0,0,1-14.8.56,32.82,32.82,0,0,0,30.63,22.78A65.88,65.88,0,0,1,70.08,200.21Z"/></svg>