<svg id="Capa_1" data-name="Capa 1" xmlns="http://www.w3.org/2000/svg" viewBox="0 0 300 300"><defs><style>.cls-1{fill:#1eb8eb;}.cls-2{fill:#fff;}</style></defs><rect class="cls-1" width="300" height="300" rx="47"/><path class="cls-2" d="M210.27,76.42q-35.37-1.14-47.92,40a31.78,31.78,0,0,1,12.6-2.8c8.65,0,12.47,4.88,11.45,14.59q-.77,8.82-11.45,25.7t-16,16.88q-6.9,0-12.61-26-1.94-7.65-6.88-39Q134.83,76.63,115,78.56q-8.42.76-25.22,15.28Q77.54,104.91,64.93,116l8,10.32c7.62-5.34,12.08-8,13.35-8q8.76,0,16.39,27.49l13.74,50.38q10.27,27.47,25.16,27.47,24,0,58.71-45.12,33.56-43.2,34.7-68Q236.49,77.19,210.27,76.42Z"/></svg>