<svg xmlns="http://www.w3.org/2000/svg" viewBox="0 0 300 300"><defs><style>.cls-1{isolation:isolate;}.cls-2{fill:#ededed;}.cls-3,.cls-4,.cls-5{fill:none;stroke:#000;stroke-miterlimit:10;}.cls-3{stroke-width:13px;}.cls-4,.cls-5{stroke-width:9px;}.cls-4{mix-blend-mode:darken;}</style></defs><g class="cls-1"><g id="Capa_1" data-name="Capa 1"><rect class="cls-2" width="300" height="300" rx="47"/><circle class="cls-3" cx="150" cy="150.42" r="132.16"/><path class="cls-4" d="M150.25,282.17c-41.44-25.31-69.61-75-69.61-132.17,0-56.95,28-106.49,69.16-131.9"/><path class="cls-4" d="M150.25,282.45c41.44-25.31,69.61-75,69.61-132.17,0-56.95-28-106.49-69.16-131.89"/><path class="cls-4" d="M252.29,66.74c-26.79,22-62.76,35.5-102.29,35.5S74.5,88.77,47.71,66.74"/><path class="cls-5" d="M47.09,233.34c26.86-22.33,63.07-36,102.91-36s76.06,13.69,102.92,36"/><line class="cls-5" x1="17.84" y1="150.42" x2="282.16" y2="150.42"/><line class="cls-5" x1="150" y1="282.4" x2="150" y2="18.08"/></g></g></svg>