<svg id="Capa_1" data-name="Capa 1" xmlns="http://www.w3.org/2000/svg" viewBox="0 0 300 300"><defs><style>.cls-1{fill:#57f676;}.cls-2{fill:#fff;fill-rule:evenodd;}</style></defs><rect class="cls-1" width="300" height="300" rx="47"/><path class="cls-2" d="M232.24,145.84c-1.1-43.34-36.8-78.13-80.75-78.13-43.41,0-78.81,34-80.7,76.66,0,1.17-.08,2.34-.08,3.51a79.51,79.51,0,0,0,11.58,41.41l-14.57,43,44.75-14.22a80.8,80.8,0,0,0,39,10c44.63,0,80.79-35.89,80.79-80.18C232.28,147.2,232.28,146.52,232.24,145.84Zm-80.75,69.43a67.65,67.65,0,0,1-37.36-11.15L88,212.44l8.48-25a66.66,66.66,0,0,1-12.94-39.52,64.5,64.5,0,0,1,.34-6.54c3.33-34.12,32.37-60.85,67.58-60.85,35.67,0,65,27.42,67.7,62.13.15,1.75.23,3.48.23,5.26C219.42,185.06,188.93,215.27,151.49,215.27Z"/><path class="cls-2" d="M188.52,164.07c-2-1-11.73-5.75-13.54-6.39s-3.14-1-4.46,1-5.15,6.39-6.28,7.68-2.31,1.47-4.31.49A53.66,53.66,0,0,1,144,157.07a58.88,58.88,0,0,1-11-13.58c-1.13-2-.11-3,.87-4s2-2.31,3-3.44l.72-1a21.87,21.87,0,0,0,1.24-2.35,3.5,3.5,0,0,0-.15-3.44c-.49-1-4.46-10.66-6.12-14.6s-3.29-3.25-4.47-3.25-2.45-.19-3.78-.19a7.3,7.3,0,0,0-5.29,2.46,22,22,0,0,0-6.92,16.41,24.83,24.83,0,0,0,1,6.7,44.56,44.56,0,0,0,7.07,13.61c1,1.29,13.69,21.79,33.81,29.69s20.16,5.22,23.79,4.88,11.72-4.73,13.35-9.34,1.66-8.51,1.17-9.34S190.48,165.05,188.52,164.07Z"/></svg>