<svg id="Capa_1" data-name="Capa 1" xmlns="http://www.w3.org/2000/svg" viewBox="0 0 300 300"><defs><style>.cls-1{fill:#c3271a;}.cls-2{fill:#fff;}</style></defs><rect class="cls-1" width="300" height="300" rx="47"/><path class="cls-2" d="M265,91.83A30.18,30.18,0,0,0,243.8,70.47c-18.72-5-93.8-5-93.8-5s-75.08,0-93.8,5A30.18,30.18,0,0,0,35,91.83C30,110.68,30,150,30,150s0,39.32,5,58.17A30.18,30.18,0,0,0,56.2,229.53c18.72,5.05,93.8,5.05,93.8,5.05s75.08,0,93.8-5.05A30.18,30.18,0,0,0,265,208.17c5-18.85,5-58.17,5-58.17S270.05,110.68,265,91.83Z"/><polygon class="cls-1" points="125.44 185.7 125.44 114.3 188.2 150 125.44 185.7"/></svg>